<?xml version="1.0" encoding="UTF-8" standalone="no"?>
<svg
   xmlns:dc="http://purl.org/dc/elements/1.1/"
   xmlns:cc="http://creativecommons.org/ns#"
   xmlns:rdf="http://www.w3.org/1999/02/22-rdf-syntax-ns#"
   xmlns:svg="http://www.w3.org/2000/svg"
   xmlns="http://www.w3.org/2000/svg"
   xmlns:sodipodi="http://sodipodi.sourceforge.net/DTD/sodipodi-0.dtd"
   xmlns:inkscape="http://www.inkscape.org/namespaces/inkscape"
   version="1.2"
   viewBox="0 0 150 150"
   preserveAspectRatio="xMidYMid"
   xml:space="preserve"
   x="0px"
   y="0px"
   id="svg2"
   inkscape:version="0.91 r13725"
   sodipodi:docname="payment.svg"
   width="150"
   height="150"
   style="fill-rule:evenodd;stroke-width:28.22200012;stroke-linejoin:round"><metadata
     id="metadata41"><rdf:RDF><cc:Work
         rdf:about=""><dc:format>image/svg+xml</dc:format><dc:type
           rdf:resource="http://purl.org/dc/dcmitype/StillImage" /><dc:title></dc:title></cc:Work></rdf:RDF></metadata><sodipodi:namedview
     pagecolor="#ffffff"
     bordercolor="#666666"
     borderopacity="1"
     objecttolerance="10"
     gridtolerance="10"
     guidetolerance="10"
     inkscape:pageopacity="0"
     inkscape:pageshadow="2"
     inkscape:window-width="1920"
     inkscape:window-height="1018"
     id="namedview39"
     showgrid="false"
     inkscape:zoom="0.84095597"
     inkscape:cx="-105.06338"
     inkscape:cy="-28.477009"
     inkscape:window-x="-8"
     inkscape:window-y="-8"
     inkscape:window-maximized="1"
     inkscape:current-layer="svg2" /><defs
     class="ClipPathGroup"
     id="defs4"><clipPath
       id="a"
       clipPathUnits="userSpaceOnUse"><rect
         x="0"
         y="0"
         width="2540"
         height="2540"
         id="rect7" /></clipPath></defs><g
     class="SlideGroup"
     id="g9"
     transform="matrix(0.05529542,0,0,0.05529542,4.3426961,5.4398188)"><g
       id="g11"><g
         id="g13"><g
           class="Slide"
           clip-path="url(#a)"
           id="g15"><g
             class="Page"
             id="g17"><g
               class="com.sun.star.drawing.ClosedBezierShape"
               id="g19"><g
                 id="g21"><rect
                   class="BoundingBox"
                   x="92"
                   y="95"
                   width="2363"
                   height="2363"
                   id="rect23"
                   style="fill:none;stroke:none" /><path
                   d="m 1739,185 c 143,59 269,144 375,250 106,106 191,232 250,375 58,142 90,299 90,466 0,167 -32,324 -90,466 -59,143 -144,269 -250,375 -106,106 -232,191 -375,250 -142,58 -299,90 -466,90 -167,0 -324,-32 -466,-90 C 664,2308 538,2223 432,2117 326,2011 241,1885 182,1742 124,1600 92,1443 92,1276 92,1109 124,952 182,810 241,667 326,541 432,435 538,329 664,244 807,185 c 142,-58 299,-90 466,-90 167,0 324,32 466,90 z m -28,2111 c 132,-54 251,-134 350,-232 98,-99 178,-218 232,-350 55,-134 85,-281 85,-438 0,-157 -30,-304 -85,-438 -54,-132 -134,-251 -232,-350 -99,-98 -218,-178 -350,-232 -134,-55 -281,-85 -438,-85 -157,0 -304,30 -438,85 -132,54 -251,134 -350,232 -98,99 -178,218 -232,350 -55,134 -85,281 -85,438 0,157 30,304 85,438 54,132 134,251 232,350 99,98 218,178 350,232 134,55 281,85 438,85 157,0 304,-30 438,-85 z"
                   id="path25"
                   inkscape:connector-curvature="0"
                   style="fill:#000000;stroke:none" /></g></g><g
               class="com.sun.star.drawing.ClosedBezierShape"
               id="g27"><g
                 id="g29"><rect
                   class="BoundingBox"
                   x="577"
                   y="721"
                   width="1388"
                   height="1068"
                   id="rect31"
                   style="fill:none;stroke:none" /><path
                   d="m -4817.3447,-546.05673 c -2,0 -4,1 -6,2 -5,2 -9,5 -13,8 -3,4 -6,8 -8,13 -1,2 -2,4 -2,6 -1,2 -1,3 -1,5 l 0,39 450,0 0,-39 c 0,-2 0,-3 -1,-5 0,-2 -1,-4 -2,-6 -2,-4 -5,-9 -9,-12 -4,-4 -8,-7 -13,-9 -2,-1 -4,-2 -6,-2 -2,-1 -3,-1 -5,-1 l -379,0 c -2,0 -3,0 -5,1 z m -106,34 c 0,-8 1,-15 3,-22 1,-7 4,-14 7,-21 5,-13 14,-24 24,-34 10,-10 21,-19 34,-24 7,-3 14,-6 21,-7 7,-2 14,-3 22,-3 l 379,0 c 8,0 15,1 22,3 7,1 14,4 21,7 13,5 24,14 34,24 11,9 19,21 25,34 3,6 6,13 7,20 2,8 3,15 3,23 l 0,39 276,0 c 58,0 117,58 117,116 l 0,105 -607,199.000002 c -4,-2 -8,-3 -11,-4 -4,-1 -9,-1 -13,-1 l -126,0 c -4,0 -9,0 -13,1 -3,1 -7,2 -10,3 l -607,-198.000002 0,-105 c 0,-58 58,-116 116,-116 l 276,0 0,-39 z m 237,505.0000023 1,0 126,0 1,0 c 1,0 2,0 3,0 1,1 3,2 4,4 2,1 3,2.99999998 4,3.99999998 0,1.00000002 0,1.00000002 0,2.00000002 l 1,1 0,42.9999997 -1,1 c 0,1 0,2 0,2 -1,2 -2,4 -4,5 -1,2 -3,3 -5,4 0,0 -1,0 -2,0 l -1,1 -126,0 -1,-1 c -1,0 -2,0 -2,0 -2,-1 -4,-2 -5,-4 -2,-1 -3,-3 -4,-5 0,0 0,-1 0,-2 l 0,-1 0,-42.9999997 0,-1 c 0,-1 0,-1 0,-2.00000002 1,-1 2,-2.99999998 4,-3.99999998 1,-2 3,-3 4,-4 1,0 2,0 3,0 z m 189,-2 c 0,-1.0000003 -1,-2.0000003 -1,-3.0000003 l 570,-187.000002 0,526 c 0,58 -59,117 -117,117 l -1154,0 c -58,0 -116,-59 -116,-117 l 0,-526 569,187.000002 c 0,1 -1,2 -1,3.0000003 -1,4 -1,8.99999998 -1,13 l 0,42.9999997 c 0,4 0,9 1,13 1,4 2,8 4,12 3,7 8,13 14,19 6,6 12,10.999998 19,13.999998 4,2 8,3 12,4 4,1 9,2 13,2 l 126,0 c 4,0 9,-1 13,-2 4,-1 8,-2 12,-4 7,-3 13,-7.999998 19,-13.999998 6,-6 11,-12 14,-19 2,-4 3,-8 4,-12 1,-4 2,-9 2,-13 l 0,-42.9999997 c 0,-4.00000002 -1,-9 -2,-13 z"
                   id="path33"
                   inkscape:connector-curvature="0"
                   style="fill:#000000;stroke:none" /></g></g></g></g></g></g></g><text
     x="4.3426728"
     y="146.71962"
     font-size="5px"
     font-weight="bold"
     id="text35"
     style="font-weight:bold;font-size:0.2764771px;font-family:'Helvetica Neue', Helvetica, Arial-Unicode, Arial, Sans-serif;fill:#000000">Created by Erik Arndt</text>
<text
     x="4.3426728"
     y="146.99609"
     font-size="5px"
     font-weight="bold"
     id="text37"
     style="font-weight:bold;font-size:0.2764771px;font-family:'Helvetica Neue', Helvetica, Arial-Unicode, Arial, Sans-serif;fill:#000000">from the Noun Project</text>
<g
     id="g3395"
     transform="matrix(2.2598,0,0,2.2598,31.950685,40.290773)"><g
       id="g3379"><path
         id="path3381"
         d="m 29.65,16.897 c -1.089,-0.739 -2.274,-0.212 -2.819,0.102 l -6.155,5 L 16,22 l -1,-1 3.674,0 c 1.105,0 2.342,-0.72 2.342,-2 0,-1.36 -1.237,-2 -2.342,-2 l -1.377,0 c -1.023,0 -2.218,0.091 -3.06,-0.36 l 0,0.003 C 13.436,16.235 12.514,16 11.53,16 9.878,16 8.399,16.659 7.385,17.698 L 2,22.999 l 6,6 2,-3 10.127,0 c 1.008,0 1.981,-0.37 2.734,-1.039 l 6.857,-6.692 c 0.42,-0.372 0.396,-1.056 -0.068,-1.371 z"
         inkscape:connector-curvature="0" /><path
         id="path3383"
         d="m 14,13 11,0 c 1.105,0 2,-0.896 2,-2 L 27,5 C 27,3.895 26.105,3 25,3 L 14,3 c -1.105,0 -2,0.895 -2,2 l 0,6 c 0,1.104 0.895,2 2,2 z m 9,-3 2,0 0,1 -2,0 0,-1 z m -3,0 2,0 0,1 -2,0 0,-1 z m -3,0 2,0 0,1 -2,0 0,-1 z m -3,-5 2,0 0,2 -2,0 0,-2 z m 0,5 2,0 0,1 -2,0 0,-1 z"
         inkscape:connector-curvature="0" /></g></g></svg>