<?xml version="1.0" encoding="UTF-8" standalone="no"?>
<svg
   xmlns:dc="http://purl.org/dc/elements/1.1/"
   xmlns:cc="http://creativecommons.org/ns#"
   xmlns:rdf="http://www.w3.org/1999/02/22-rdf-syntax-ns#"
   xmlns:svg="http://www.w3.org/2000/svg"
   xmlns="http://www.w3.org/2000/svg"
   xmlns:xlink="http://www.w3.org/1999/xlink"
   xmlns:sodipodi="http://sodipodi.sourceforge.net/DTD/sodipodi-0.dtd"
   xmlns:inkscape="http://www.inkscape.org/namespaces/inkscape"
   width="128"
   height="72"
   id="svg2"
   version="1.1"
   inkscape:version="0.91 r13725"
   sodipodi:docname="subtitling.svg">
  <metadata
     id="metadata58">
    <rdf:RDF>
      <cc:Work
         rdf:about="">
        <dc:format>image/svg+xml</dc:format>
        <dc:type
           rdf:resource="http://purl.org/dc/dcmitype/StillImage" />
        <dc:title></dc:title>
      </cc:Work>
    </rdf:RDF>
  </metadata>
  <sodipodi:namedview
     pagecolor="#ffffff"
     bordercolor="#666666"
     borderopacity="1"
     objecttolerance="10"
     gridtolerance="10"
     guidetolerance="10"
     inkscape:pageopacity="0"
     inkscape:pageshadow="2"
     inkscape:window-width="2560"
     inkscape:window-height="1378"
     id="namedview56"
     showgrid="false"
     inkscape:zoom="1.5909903"
     inkscape:cx="-274.68465"
     inkscape:cy="5.620643"
     inkscape:window-x="-8"
     inkscape:window-y="-8"
     inkscape:window-maximized="1"
     inkscape:current-layer="svg2" />
  <defs
     id="defs4">
    <linearGradient
       inkscape:collect="always"
       id="linearGradient4174">
      <stop
         style="stop-color:#c1346f;stop-opacity:1"
         offset="0"
         id="stop4176" />
      <stop
         style="stop-color:#e13247;stop-opacity:1"
         offset="1"
         id="stop4178" />
    </linearGradient>
    <linearGradient
       x1="49.078%"
       y1="100%"
       x2="0%"
       y2="7.585%"
       id="a">
      <stop
         stop-color="#006DCC"
         offset="0%"
         id="stop7" />
      <stop
         stop-color="#338BF8"
         offset="39.97%"
         id="stop9" />
      <stop
         stop-color="#23FAD2"
         offset="100%"
         id="stop11" />
    </linearGradient>
    <circle
       id="b"
       cx="36"
       cy="36"
       r="36" />
    <linearGradient
       x1="0%"
       y1="0%"
       x2="50%"
       y2="100%"
       id="e">
      <stop
         stop-color="#EEE"
         offset="0%"
         id="stop15" />
      <stop
         stop-color="#C7E5FF"
         stop-opacity="0"
         offset="100%"
         id="stop17" />
    </linearGradient>
    <rect
       id="d"
       width="50"
       height="32"
       rx="2" />
    <filter
       x="-28%"
       y="-31.2%"
       width="156%"
       height="187.5%"
       filterUnits="objectBoundingBox"
       id="c">
      <feOffset
         dy="4"
         in="SourceAlpha"
         result="shadowOffsetOuter1"
         id="feOffset21" />
      <feGaussianBlur
         stdDeviation="4"
         in="shadowOffsetOuter1"
         result="shadowBlurOuter1"
         id="feGaussianBlur23" />
      <feColorMatrix
         values="0 0 0 0 0.207843137 0 0 0 0 0.145098039 0 0 0 0 0.82745098 0 0 0 0.16 0"
         in="shadowBlurOuter1"
         id="feColorMatrix25" />
    </filter>
    <linearGradient
       x1="50%"
       y1="0%"
       x2="50%"
       y2="100%"
       id="h">
      <stop
         stop-color="#EEE"
         offset="0%"
         id="stop28" />
      <stop
         stop-color="#C7E5FF"
         offset="100%"
         id="stop30" />
    </linearGradient>
    <rect
       id="g"
       x="11"
       y="10"
       width="50"
       height="32"
       rx="2" />
    <filter
       x="-28%"
       y="-31.2%"
       width="156%"
       height="187.5%"
       filterUnits="objectBoundingBox"
       id="f">
      <feOffset
         dy="4"
         in="SourceAlpha"
         result="shadowOffsetOuter1"
         id="feOffset34" />
      <feGaussianBlur
         stdDeviation="4"
         in="shadowOffsetOuter1"
         result="shadowBlurOuter1"
         id="feGaussianBlur36" />
      <feColorMatrix
         values="0 0 0 0 0.207843137 0 0 0 0 0.145098039 0 0 0 0 0.82745098 0 0 0 0.16 0"
         in="shadowBlurOuter1"
         id="feColorMatrix38" />
    </filter>
    <linearGradient
       inkscape:collect="always"
       xlink:href="#linearGradient4174"
       id="linearGradient4180"
       x1="44.626297"
       y1="6.0033689"
       x2="77.310341"
       y2="46.229885"
       gradientUnits="userSpaceOnUse" />
  </defs>
  <g
     id="g40"
     fill-rule="evenodd"
     fill="none"
     style="fill-opacity:1;fill:url(#linearGradient4180)">
    <use
       xlink:href="#b"
       transform="translate(28)"
       id="use42"
       fill="url(#a)"
       style="fill-opacity:1.0;fill:url(#linearGradient4180)" />
    <g
       transform="translate(41 14)"
       id="g44"
       style="fill-opacity:1.0;fill:url(#linearGradient4180)" />
    <g
       transform="translate(41 14)"
       id="g50"
       style="fill-opacity:1.0;fill:url(#linearGradient4180)" />
  </g>
  <g
     style="fill:#ffffff"
     id="g3400"
     transform="matrix(0.44637928,0,0,0.44637928,159.73618,14.107244)">
    <path
       id="path3388"
       d="M 18.59375,19 C 14.99402,19 11.999999,21.937014 12,25.53125 L 12,41 a 2.0002,2.0002 0 1 0 4,0 L 16,25.53125 C 15.999999,24.115398 17.10972,23 18.59375,23 l 68.8125,0 C 88.890294,23 90,24.115395 90,25.53125 l 0,42.9375 C 90,69.884603 88.890294,71 87.40625,71 L 46,71 a 2.0002,2.0002 0 1 0 0,4 l 41.40625,0 C 91.005986,75 94,72.062983 94,68.46875 l 0,-42.9375 C 94,21.937017 91.005986,19 87.40625,19 l -68.8125,0 z M 43.8125,33 A 2.0002,2.0002 0 0 0 42,35 l 0,24 a 2.0002,2.0002 0 0 0 2.96875,1.75 l 22,-12 a 2.0002,2.0002 0 0 0 0,-3.5 l -22,-12 A 2.0002,2.0002 0 0 0 43.8125,33 Z M 46,38.375 61.8125,47 46,55.625 46,38.375 Z M 7.8125,47 A 2.0021961,2.0021961 0 1 0 8,51 c 15.487755,0 28,12.512282 28,28 a 2.0002,2.0002 0 1 0 4,0 C 40,61.350518 25.649505,47 8,47 a 2.0002,2.0002 0 0 0 -0.1875,0 z m 0,8 A 2.0021961,2.0021961 0 1 0 8,59 c 11.069387,0 20,8.930686 20,20 a 2.0002,2.0002 0 1 0 4,0 C 32,65.768914 21.231139,55 8,55 a 2.0002,2.0002 0 0 0 -0.1875,0 z m 0,8 A 2.0021961,2.0021961 0 1 0 8,67 c 6.651126,0 12,5.348881 12,12 a 2.0002,2.0002 0 1 0 4,0 C 24,70.187119 16.812878,63 8,63 a 2.0002,2.0002 0 0 0 -0.1875,0 z"
       style="color:#000000;font-style:normal;font-variant:normal;font-weight:normal;font-stretch:normal;font-size:medium;line-height:normal;font-family:Sans;-inkscape-font-specification:Sans;text-indent:0;text-align:start;text-decoration:none;text-decoration-line:none;letter-spacing:normal;word-spacing:normal;text-transform:none;direction:ltr;block-progression:tb;writing-mode:lr-tb;baseline-shift:baseline;text-anchor:start;display:inline;overflow:visible;visibility:visible;opacity:1;fill:#ffffff;fill-opacity:1;stroke:none;stroke-width:4;marker:none;enable-background:accumulate"
       inkscape:connector-curvature="0" />
  </g>
  <g
     style="fill:#000000"
     id="g3434"
     transform="matrix(0.39584729,0,0,0.43998359,40.073088,11.532027)">
    <g
       style="fill:#ffffff;fill-opacity:1"
       transform="matrix(0.88281433,0,0,0.73972889,15.181321,19.634799)"
       id="g4684">
      <g
         style="fill:#ffffff;fill-opacity:1"
         id="g4670">
        <path
           style="fill:#ffffff;fill-opacity:1"
           inkscape:connector-curvature="0"
           d="m 89.998,7.506 -79.996,0 c -5.522,0 -10,4.478 -10,9.999 l 0,64.99 c 0,5.521 4.477,9.999 10,9.999 l 79.996,0 c 5.522,0 10,-4.478 10,-9.999 l 0,-64.99 c 0,-5.522 -4.477,-9.999 -10,-9.999 z m 5,74.989 c 0,2.753 -2.241,4.999 -5,4.999 l -79.996,0 c -2.758,0 -5,-2.246 -5,-4.999 l 0,-64.99 c 0,-2.754 2.241,-4.999 5,-4.999 l 79.996,0 c 2.759,0 5,2.245 5,4.999 l 0,64.99 z m -29.999,-14.998 -39.998,0 0,-4.999 39.998,0 0,4.999 z m 10,0 -5,0 0,-4.999 5,0 0,4.999 z m -59.998,5 5,0 0,4.999 -5,0 0,-4.999 z m 10,0 34.999,0 0,4.999 -34.999,0 0,-4.999 z m 39.998,0 19.999,0 0,4.999 -19.999,0 0,-4.999 z"
           id="path4672" />
      </g>
    </g>
  </g>
</svg>
